<?xml version="1.0" encoding="UTF-8" standalone="no"?>
<svg width="43px" height="45px" viewBox="0 0 43 45" version="1.1" xmlns="http://www.w3.org/2000/svg" xmlns:xlink="http://www.w3.org/1999/xlink">
    <!-- Generator: Sketch 43.2 (39069) - http://www.bohemiancoding.com/sketch -->
    <title>noun_781045_cc</title>
    <desc>Created with Sketch.</desc>
    <defs></defs>
    <g id="Page-1" stroke="none" stroke-width="1" fill="none" fill-rule="evenodd">
        <g id="Landing-A-2" transform="translate(-615.000000, -510.000000)" fill-rule="nonzero" fill="#EA645F">
            <g id="noun_781045_cc" transform="translate(615.000000, 510.000000)">
                <path d="M42.9719437,4.3246976 C43.1146852,3.14718165 42.7076269,1.96947838 41.8680016,1.13076667 C41.0283763,0.292054962 39.8493902,-0.114560442 38.6705916,0.0280258101 C27.9953343,1.32712636 19.7556717,5.57789354 14.1492086,12.6609753 L13.1611843,12.6104803 C11.2582005,12.5174127 9.4042578,13.2308457 8.05562652,14.5751977 L5.05019464,17.5773594 C4.55451076,18.0710751 4.33834639,18.7794207 4.47402827,19.46539 C4.60971014,20.1513592 5.0793189,20.7243568 5.72572749,20.9926626 L8.94255061,22.3284869 C8.63830573,23.2541695 8.38215016,24.1949383 8.17510852,25.1470301 L7.78908975,26.9235386 L16.0425388,35.1634167 L17.8255779,34.777818 C18.7804323,34.5681693 19.7237672,34.309226 20.6517867,34.00203 L21.9890661,37.2153529 C22.2566886,37.8617704 22.82987,38.3319302 23.51669,38.468407 C24.20351,38.6048839 24.913184,38.3896381 25.4080895,37.8947412 L28.3951395,34.887989 C29.7457717,33.5449283 30.4651801,31.6941756 30.3757835,29.792577 L30.3252334,28.8056278 C37.4160306,23.2190364 41.671428,14.9883392 42.9719437,4.3246976 Z M27.434688,26.528759 L26.6626505,27.0842048 L26.8097053,29.962424 L26.8097053,29.962424 C26.8562013,30.8563906 26.5223876,31.7283635 25.8906129,32.3632353 L24.4430425,33.8092306 L22.6048579,29.4391114 L20.9964464,30.0863665 C19.7600336,30.5758579 18.4879831,30.9702556 17.1914042,31.266115 L11.6998276,25.7805138 C11.9960266,24.4853503 12.3908535,23.2146852 12.8808612,21.9796118 L13.5196303,20.349998 L9.14475092,18.5138135 L10.5923213,17.0678182 C11.2278847,16.4367309 12.1008074,16.1032805 12.9957477,16.1497259 L15.8771021,16.2966207 L16.4469394,15.5483755 C21.4330152,8.81875923 29.056886,4.78833419 39.0979695,3.56727148 C39.1879009,3.55214448 39.2794206,3.58319285 39.341529,3.64989979 C39.4086011,3.71192845 39.4411869,3.80272659 39.4288428,3.89319424 C38.20645,13.9279427 34.1716347,21.543518 27.434688,26.528759 Z M3.40961485,35.3883493 C2.51320935,35.0742278 1.55076988,34.9967472 0.615574209,35.1634167 C0.448952915,35.1976771 0.276254446,35.1459239 0.15602805,35.0257029 C-0.00510231575,34.870489 -0.0461032607,34.6284743 0.0549278953,34.4289429 C1.01997483,32.2989688 3.68993801,28.0022971 8.46921806,31.4726858 C8.52065517,31.5179997 8.55012223,31.5832056 8.55012223,31.6517138 C8.55012223,31.720222 8.52065517,31.7854279 8.46921806,31.8307418 C7.17277168,32.8627677 6.44579508,34.4498071 6.51155143,36.1044613 C6.51865945,36.3042657 6.67916628,36.4645979 6.87918835,36.4716982 C8.53006673,36.5377259 10.114335,35.8171487 11.1483722,34.529933 C11.193734,34.4736661 11.2621657,34.4409478 11.3344884,34.4409478 C11.406811,34.4409478 11.4752427,34.4736661 11.5206046,34.529933 C12.1869465,35.3240828 14.0205357,37.9085126 11.9801507,40.4011331 C11.0927348,41.4616365 9.82344067,42.1310418 8.44624075,42.2648604 C6.46559681,42.480612 2.83058669,43.1049148 1.32327529,44.8171568 C1.20198106,44.9621648 1.01031102,45.0282125 0.82531158,44.9887504 C0.640312143,44.9492883 0.492367151,44.8107976 0.440946669,44.6289479 C-0.0967223371,42.8340776 -0.896332653,38.8357858 3.40961485,35.3883493 Z M31.6671082,11.3205606 C32.8043685,12.4560364 33.1448101,14.1640764 32.5296564,15.6480785 C31.9145026,17.1320806 30.4649251,18.0997296 28.8569834,18.0997296 C27.2490416,18.0997296 25.7994642,17.1320806 25.1843104,15.6480785 C24.5691567,14.1640764 24.9095982,12.4560364 26.0468586,11.3205606 C27.5990667,9.77078844 30.1149001,9.77078844 31.6671082,11.3205606 Z M24.4154698,18.5643086 C25.2223608,19.3686267 25.4644602,20.5794224 25.0287871,21.6316517 C24.593114,22.683881 23.565552,23.3701196 22.4256349,23.3701196 C21.2857178,23.3701196 20.2581558,22.683881 19.8224827,21.6316517 C19.3868096,20.5794224 19.628909,19.3686267 20.4358,18.5643086 C21.5354324,17.4681825 23.3158374,17.4681825 24.4154698,18.5643086 Z" id="Shape"></path>
            </g>
        </g>
    </g>
</svg>